:FULLY-SPECIFIED
:FORCE-ALL-JOINTS-BE-3DOF
:DEGREES
162
root 8.24629 16.5753 -14.1584 8.10992 9.78094 -0.624826
lfemur -4.27173 8.03448 -13.872
ltibia 52.5921 -0 0
lfoot 3.4297 12.6715 -0.0311301
ltoes -11.5931 0 0
rfemur -30.2352 1.23084 23.3055
rtibia 31.7093 -0 0
rfoot -12.1449 0.0700271 -0.000269278
rtoes -14.6407 0 0
lowerback -5.08085 -2.17772 -0.804906
upperback -1.98691 -2.90542 3.57859
thorax 1.0262 -1.44332 3.96466
lowerneck -18.7591 -6.97793 -15.0561
upperneck 14.87 -8.3929 14.9246
head 9.06676 -3.37767 6.50222
lclavicle 2.86043e-14 -9.14409e-15 0
lhumerus -43.8316 -10.1937 95.7687
lradius 23.965 -0 0
lwrist 0.00454817 0 0
lhand -0.590471 -17.787 -0.00166858
lfingers 7.12502 0 0
lthumb 25.0246 10.593 -0.00187275
rclavicle 2.86043e-14 -9.14409e-15 0
rhumerus -45.4289 8.19495 -81.5105
rradius 32.7674 -0 0
rwrist -17.9646 0 0
rhand -28.1723 -28.696 -0.00178261
rfingers 7.12502 0 0
rthumb -1.55231 -58.6698 -0.00173278
163
root 8.22926 16.6107 -14.0339 8.16814 9.6865 -0.720423
lfemur -5.87019 8.07046 -14.0811
ltibia 54.2525 0 0
lfoot 2.51013 13.1915 0
ltoes -10.5354 0 0
rfemur -29.4704 1.23328 23.5451
rtibia 31.0438 0 0
rfoot -12.4074 0.262309 0
rtoes -14.946 0 0
lowerback -5.02286 -2.03316 -0.732397
upperback -1.99019 -2.71539 3.58917
thorax 0.974717 -1.34756 3.94971
lowerneck -18.5996 -7.02721 -15.1065
upperneck 14.6736 -8.47255 15.0358
head 8.99298 -3.41434 6.53462
lclavicle 3.60297e-14 -7.95139e-15 0
lhumerus -44.4565 -11.1407 96.4025
lradius 24.8871 0 0
lwrist 1.35588 0 0
lhand -0.454373 -17.8336 0
lfingers 7.12502 0 0
lthumb 25.1551 10.529 0
rclavicle 3.60297e-14 -7.95139e-15 0
rhumerus -45.2086 8.65175 -81.5253
rradius 33.2742 0 0
rwrist -18.1265 0 0
rhand -28.0664 -28.7822 0
rfingers 7.12502 0 0
rthumb -1.45006 -58.757 0
164
root 8.21989 16.6332 -13.912 8.17582 9.54959 -0.86043
lfemur -7.38149 8.13596 -14.2468
ltibia 55.7095 -0 0
lfoot 1.63943 13.2851 0.026441
ltoes -10.5165 0 0
rfemur -28.6627 1.29773 23.8198
rtibia 30.3978 -0 0
rfoot -12.6639 0.440907 0.000335168
rtoes -14.9692 0 0
lowerback -4.96802 -1.87213 -0.602967
upperback -1.94089 -2.50762 3.59393
thorax 0.975722 -1.24402 3.89684
lowerneck -18.5568 -7.08325 -15.0916
upperneck 14.5385 -8.5601 15.1013
head 8.95679 -3.4503 6.53839
lclavicle 3.0795e-14 -1.08669e-14 0
lhumerus -44.9431 -11.9393 96.8784
lradius 25.7207 -0 0
lwrist 2.61432 0 0
lhand -0.572869 -18.0402 -0.00230917
lfingers 7.12502 0 0
lthumb 25.0418 10.3405 -0.00175676
rclavicle 3.0795e-14 -1.08669e-14 0
rhumerus -44.948 9.11885 -81.5518
rradius 33.8282 -0 0
rwrist -18.3829 0 0
rhand -28.1617 -28.5174 -0.00310106
rfingers 7.12502 0 0
rthumb -1.5421 -58.4913 -0.00300342
165
root 8.21052 16.6556 -13.79 8.14153 9.37162 -1.02819
lfemur -8.80634 8.21749 -14.398
ltibia 56.9517 -0 0
lfoot 0.755128 13.0199 0.0403789
ltoes -11.25 0 0
rfemur -27.8098 1.40851 24.1149
rtibia 29.7469 -0 0
rfoot -12.9083 0.610711 0.000479739
rtoes -14.796 0 0
lowerback -4.91998 -1.69628 -0.433349
upperback -1.84271 -2.28327 3.58983
thorax 1.02821 -1.1332 3.81197
lowerneck -18.618 -7.14329 -15.0132
upperneck 14.4515 -8.65275 15.1254
head 8.95134 -3.48432 6.5157
lclavicle 2.55604e-14 -1.37824e-14 0
lhumerus -45.319 -12.6361 97.2325
lradius 26.5207 -0 0
lwrist 3.82527 0 0
lhand -0.848954 -18.3528 -0.0127551
lfingers 7.12502 0 0
lthumb 24.7778 10.0703 -0.0105374
rclavicle 2.55604e-14 -1.37824e-14 0
rhumerus -44.6439 9.60947 -81.5894
rradius 34.4285 -0 0
rwrist -18.6887 0 0
rhand -28.3946 -27.9522 -0.00768273
rfingers 7.12502 0 0
rthumb -1.76702 -57.9239 -0.00744185
166
root 8.20115 16.6781 -13.6681 8.08224 9.16604 -1.20741
lfemur -10.1738 8.30627 -14.549
ltibia 58.0137 -0 0
lfoot -0.130274 12.5235 0.0401874
ltoes -12.3288 0 0
rfemur -26.9447 1.54839 24.4169
rtibia 29.1212 -0 0
rfoot -13.1514 0.77149 0.000432736
rtoes -14.5194 0 0
lowerback -4.87399 -1.51052 -0.244311
upperback -1.72424 -2.04693 3.58009
thorax 1.10144 -1.01671 3.70987
lowerneck -18.7105 -7.20239 -14.9078
upperneck 14.3908 -8.74597 15.1294
head 8.95834 -3.5176 6.48152
lclavicle 2.03257e-14 -1.66979e-14 0
lhumerus -45.6259 -13.2238 97.4882
lradius 27.2833 -0 0
lwrist 4.99163 0 0
lhand -1.28352 -18.7664 -0.0239637
lfingers 7.12502 0 0
lthumb 24.3617 9.71884 -0.0200508
rclavicle 2.03257e-14 -1.66979e-14 0
rhumerus -44.3254 10.0984 -81.6227
rradius 35.0546 -0 0
rwrist -19.0198 0 0
rhand -28.7149 -27.2067 -0.0103706
rfingers 7.12502 0 0
rthumb -2.07639 -57.1753 -0.0100457
167
root 8.19178 16.7006 -13.5462 8.01475 8.94639 -1.38195
lfemur -11.5127 8.39269 -14.7133
ltibia 58.9304 -0 0
lfoot -1.00412 11.9235 0.0283051
ltoes -13.3456 0 0
rfemur -26.1005 1.70089 24.7116
rtibia 28.5505 -0 0
rfoot -13.4042 0.923015 0.000254555
rtoes -14.2322 0 0
lowerback -4.82545 -1.31974 -0.0565943
upperback -1.61403 -1.80319 3.5677
thorax 1.16474 -0.89628 3.60519
lowerneck -18.7614 -7.25585 -14.812
upperneck 14.3344 -8.83513 15.1342
head 8.95946 -3.55134 6.45082
lclavicle 1.50911e-14 -1.96134e-14 0
lhumerus -45.9067 -13.6941 97.6707
lradius 28.0048 -0 0
lwrist 6.11629 0 0
lhand -1.87754 -19.2764 -0.0293534
lfingers 7.12502 0 0
lthumb 23.7923 9.28633 -0.024664
rclavicle 1.50911e-14 -1.96134e-14 0
rhumerus -44.0213 10.5603 -81.6371
rradius 35.6858 -0 0
rwrist -19.3522 0 0
rhand -29.0725 -26.4008 -0.00916651
rfingers 7.12502 0 0
rthumb -2.42167 -56.3659 -0.00887855
168
root 8.18241 16.723 -13.4242 7.95563 8.72638 -1.53581
lfemur -12.8521 8.46637 -14.9043
ltibia 59.7364 -0 0
lfoot -1.85382 11.3474 0.0113584
ltoes -13.8934 0 0
rfemur -25.3107 1.85032 24.9845
rtibia 28.065 -0 0
rfoot -13.6776 1.06505 5.81856e-05
rtoes -14.0271 0 0
lowerback -4.76993 -1.12882 0.109084
upperback -1.54062 -1.5567 3.55541
thorax 1.18752 -0.773766 3.51246
lowerneck -18.6978 -7.29925 -14.7626
upperneck 14.2603 -8.91551 15.1612
head 8.93639 -3.58676 6.43859
lclavicle 9.8564e-15 -2.25289e-14 0
lhumerus -46.2055 -14.0377 97.8061
lradius 28.6816 -0 0
lwrist 7.20214 0 0
lhand -2.63218 -19.8783 -0.0230825
lfingers 7.12502 0 0
lthumb 23.068 8.77296 -0.0194102
rclavicle 9.8564e-15 -2.25289e-14 0
rhumerus -43.7606 10.9696 -81.6185
rradius 36.3015 -0 0
rwrist -19.6618 0 0
rhand -29.417 -25.6545 -0.00462872
rfingers 7.12502 0 0
rthumb -2.75436 -55.6159 -0.00448179
169
root 8.17304 16.7455 -13.3023 7.92123 8.5198 -1.65322
lfemur -14.2208 8.51612 -15.1348
ltibia 60.4663 0 0
lfoot -2.66703 10.9223 0
ltoes -13.5649 0 0
rfemur -24.6088 1.98164 25.2202
rtibia 27.6945 0 0
rfoot -13.9823 1.19737 0
rtoes -13.9971 0 0
lowerback -4.70319 -0.94264 0.23203
upperback -1.53251 -1.31208 3.54566
thorax 1.13923 -0.651119 3.44605
lowerneck -18.4467 -7.32801 -14.7963
upperneck 14.1464 -8.98234 15.2317
head 8.87075 -3.62506 6.45986
lclavicle 4.62174e-15 -2.54444e-14 0
lhumerus -46.5669 -14.2452 97.9211
lradius 29.3099 0 0
lwrist 8.25207 0 0
lhand -3.54876 -20.568 0
lfingers 7.12502 0 0
lthumb 22.1872 8.17868 0
rclavicle 4.62174e-15 -2.54444e-14 0
rhumerus -43.5721 11.3007 -81.5535
rradius 36.8811 0 0
rwrist -19.9247 0 0
rhand -29.6982 -25.0877 0
rfingers 7.12502 0 0
rthumb -3.02596 -55.0459 0
170
root 8.16538 16.7465 -13.1859 7.91521 8.32456 -1.72724
lfemur -15.6274 8.54149 -15.4174
ltibia 61.1078 -0 0
lfoot -3.4199 10.6035 -0.000946517
ltoes -12.0225 0 0
rfemur -24.0093 2.09564 25.4097
rtibia 27.4602 -0 0
rfoot -14.3262 1.32627 -0.000311407
rtoes -14.1987 0 0
lowerback -4.61047 -0.755104 0.307566
upperback -1.63486 -1.05918 3.53754
thorax 0.964825 -0.522624 3.40765
lowerneck -17.8581 -7.32867 -14.9539
upperneck 13.9602 -9.02868 15.3703
head 8.72732 -3.66985 6.53295
lclavicle 4.14134e-15 -2.62395e-14 0
lhumerus -47.0692 -14.2641 98.0106
lradius 29.8962 -0 0
lwrist 9.2702 0 0
lhand -4.78751 -21.4792 0.0440205
lfingers 7.12502 0 0
lthumb 20.9958 7.38361 0.0371986
rclavicle 4.14134e-15 -2.62395e-14 0
rhumerus -43.548 11.5646 -81.448
rradius 37.4305 -0 0
rwrist -20.1473 0 0
rhand -29.9387 -24.6789 0.00187847
rfingers 7.12502 0 0
rthumb -3.25822 -54.6337 0.00181027
171
root 8.15771 16.7476 -13.0695 7.92498 8.12929 -1.76926
lfemur -17.0503 8.54912 -15.7436
ltibia 61.6306 -0 0
lfoot -4.1176 10.2801 0.00218153
ltoes -9.52422 0 0
rfemur -23.4883 2.206 25.5631
rtibia 27.3424 -0 0
rfoot -14.7021 1.45321 -0.000989775
rtoes -14.5689 0 0
lowerback -4.49245 -0.561074 0.351467
upperback -1.83391 -0.79227 3.52808
thorax 0.677795 -0.385679 3.38561
lowerneck -16.9607 -7.2996 -15.2138
upperneck 13.7127 -9.05649 15.5651
head 8.51365 -3.72063 6.64962
lclavicle 3.66095e-15 -2.70347e-14 0
lhumerus -47.6905 -14.0922 98.0489
lradius 30.4448 -0 0
lwrist 10.255 0 0
lhand -6.3801 -22.643 0.0875393
lfingers 7.12502 0 0
lthumb 19.4637 6.36306 0.0741132
rclavicle 3.66095e-15 -2.70347e-14 0
rhumerus -43.6837 11.7842 -81.3156
rradius 37.9673 -0 0
rwrist -20.3503 0 0
rhand -30.1831 -24.3277 0.00203572
rfingers 7.12502 0 0
rthumb -3.49426 -54.2787 0.00195237
172
root 8.15005 16.7486 -12.9531 7.94239 7.93387 -1.79107
lfemur -18.4731 8.53865 -16.094
ltibia 62.0427 -0 0
lfoot -4.79138 9.98027 0.00634265
ltoes -6.55691 0 0
rfemur -23.0223 2.31707 25.6931
rtibia 27.3097 -0 0
rfoot -15.0985 1.57067 -0.00154913
rtoes -15.0214 0 0
lowerback -4.36807 -0.366778 0.373624
upperback -2.06972 -0.522673 3.51697
thorax 0.350462 -0.246841 3.37449
lowerneck -15.949 -7.25466 -15.5193
upperneck 13.4475 -9.07444 15.782
head 8.27561 -3.77247 6.78502
lclavicle 3.18055e-15 -2.78298e-14 0
lhumerus -48.3262 -13.795 98.033
lradius 30.9487 -0 0
lwrist 11.201 0 0
lhand -8.13446 -23.9004 0.10556
lfingers 7.12502 0 0
lthumb 17.7759 5.26035 0.0893898
rclavicle 3.18055e-15 -2.78298e-14 0
rhumerus -43.8627 11.9517 -81.1534
rradius 38.4886 -0 0
rwrist -20.5304 0 0
rhand -30.4146 -24.036 0.00129439
rfingers 7.12502 0 0
rthumb -3.71777 -53.9832 0.00123014
